<svg width="680" height="337" xmlns="http://www.w3.org/2000/svg" viewBox="0 0 1744.7 862.85"><defs><style>.cls-1{fill:#887262;}.cls-2{fill:#3c9958;}.cls-3{opacity:0.2;}.cls-4{fill:#846b5f;}.cls-5{fill:#898989;}.cls-6{opacity:0.19;}.cls-11,.cls-15,.cls-16,.cls-17,.cls-20,.cls-21,.cls-23,.cls-24,.cls-7{fill:#fff;}.cls-7{opacity:0.18;}.cls-10,.cls-18,.cls-8{fill:#5ca8c6;}.cls-8{opacity:0.68;}.cls-9{opacity:0.41;}.cls-10{opacity:0.78;}.cls-11{opacity:0.09;}.cls-12{opacity:0.12;}.cls-13{opacity:0.16;}.cls-14,.cls-17{opacity:0.06;}.cls-15{opacity:0.14;}.cls-16{opacity:0.04;}.cls-18{opacity:0.55;}.cls-19{opacity:0.13;}.cls-20{opacity:0.07;}.cls-21{opacity:0.25;}.cls-22,.cls-23{opacity:0.08;}.cls-24{opacity:0.05;}</style></defs><g id="Calque_2" data-name="Calque 2"><g id="Calque_1-2" data-name="Calque 1"><polygon class="cls-1" points="1744.35 556.84 1744.35 342.35 1322.38 212.47 576.44 225.3 576.44 365.26 1424.3 670.84 1744.35 556.84"/><path class="cls-2" d="M1744.35,342.35,885,67.71,576.44,163.6v61.7L1424.3,518.05l320.4-114.13C1744.53,369.21,1744.35,342.35,1744.35,342.35Z"/><polygon class="cls-3" points="1424.28 456.36 1424.3 518.05 576.46 225.29 576.44 163.6 1424.28 456.36"/><polygon class="cls-1" points="1424.3 670.84 1424.81 517.87 1206.92 591.02 1205.05 534.36 783.09 404.48 0 402.66 0 557.27 885 862.85 1424.3 670.84"/><polygon class="cls-4" points="576.44 225.29 430.96 270.06 1206.92 589.55 1424.81 517.87 576.44 225.29"/><polygon class="cls-5" points="1144.39 494.15 1131.21 492.56 1123.08 475.51 1138.54 457.85 1161.16 460.87 1173.16 476.6 1165.25 494.81 1144.39 494.15"/><polygon class="cls-6" points="1138.54 457.85 1134.82 471.06 1144.16 482.78 1160.08 488.49 1165.25 494.81 1152.96 494.42 1151.15 494.36 1144.39 494.15 1131.21 492.56 1123.08 475.51 1138.54 457.85"/><polygon class="cls-7" points="1168.12 488.2 1163.63 477.71 1154.09 469.54 1161.16 460.87 1173.16 476.6 1168.12 488.2"/><polygon class="cls-5" points="1060.56 425.36 1054.79 424.67 1051.25 417.15 1058.03 409.34 1067.92 410.65 1073.16 417.58 1069.68 425.63 1060.56 425.36"/><polygon class="cls-6" points="1058.03 409.34 1055.91 416.88 1059.09 421.48 1061.14 423.38 1065.67 425.51 1064.31 425.47 1063.51 425.44 1060.56 425.36 1054.79 424.67 1051.25 417.15 1058.03 409.34"/><polygon class="cls-7" points="1069.68 425.63 1064.29 422.09 1066.85 415.12 1067.92 410.65 1073.16 417.58 1069.68 425.63"/><polygon class="cls-5" points="797.32 378.18 783.43 376.5 774.86 358.53 791.16 339.9 815.01 343.08 827.67 359.68 819.32 378.88 797.32 378.18"/><polygon class="cls-6" points="791.16 339.9 786.09 357.91 793.77 368.91 798.73 373.46 809.66 378.58 806.36 378.47 804.45 378.41 797.32 378.18 783.43 376.5 774.86 358.53 791.16 339.9"/><polygon class="cls-7" points="819.32 378.88 806.32 370.4 812.44 353.74 815.01 343.08 827.67 359.68 819.32 378.88"/><polygon class="cls-5" points="839.49 371.6 832.78 370.79 828.64 362.11 836.51 353.11 848.03 354.65 854.14 362.66 850.11 371.94 839.49 371.6"/><polygon class="cls-6" points="836.51 353.11 834.06 361.81 837.77 367.12 847.48 368.71 850.11 371.94 843.85 371.74 842.93 371.71 839.49 371.6 832.78 370.79 828.64 362.11 836.51 353.11"/><polygon class="cls-7" points="850.11 371.94 849.12 364.85 846.79 359.79 848.03 354.65 854.14 362.66 850.11 371.94"/><polygon class="cls-5" points="663.45 316.68 641.77 314.36 629.11 283.68 657.31 255.32 692.61 255.32 711.73 283.44 697.86 316.97 663.45 316.68"/><polygon class="cls-6" points="657.31 255.32 650.22 277.5 663.59 295.99 689.6 305.67 697.86 316.97 677.59 316.8 674.6 316.77 663.45 316.68 641.77 314.36 629.11 283.68 657.31 255.32"/><polygon class="cls-7" points="702.9 304.79 695.94 285.89 680.57 271.42 692.61 255.32 711.73 283.44 702.9 304.79"/><polygon class="cls-5" points="1078.25 448.29 1073.35 447.69 1070.33 441.35 1076.08 434.78 1084.49 435.9 1088.96 441.75 1086.02 448.53 1078.25 448.29"/><polygon class="cls-6" points="1076.08 434.78 1074.29 441.13 1077 445.01 1084.09 446.18 1086.02 448.53 1081.44 448.39 1080.77 448.37 1078.25 448.29 1073.35 447.69 1070.33 441.35 1076.08 434.78"/><polygon class="cls-7" points="1086.02 448.53 1085.29 443.35 1083.59 439.66 1084.49 435.9 1088.96 441.75 1086.02 448.53"/><polygon class="cls-8" points="576.2 187.9 344.84 259.36 1205.4 558.14 1424.3 480.51 576.2 187.9"/><polygon class="cls-2" points="1204.38 536.84 376.6 249.74 338.48 236.76 0 342.78 0 402.66 885 706.33 1206.92 591.02 1204.38 536.84"/><polygon class="cls-9" points="885 648.37 885 862.85 0 557.27 0 342.78 885 648.37"/><polygon class="cls-10" points="1424.3 480.51 1205.4 558.14 1214.95 787.36 1424.81 712.1 1424.3 480.51"/><polygon class="cls-11" points="885 648.37 1204.38 536.84 1206.92 591.02 885 706.33 885 648.37"/><polygon class="cls-11" points="1424.3 456.36 1744.35 342.35 1744.7 403.92 1424.3 518.05 1424.3 456.36"/><polygon class="cls-2" points="625.08 148.18 708.45 52.7 931.43 114.3 940.61 239.45 718.96 205.12 625.08 148.18"/><polygon class="cls-2" points="708.45 52.7 750.62 39.29 750.85 40.39 768.98 34.52 769.51 33.28 874.18 0 997.08 9.44 1099.05 60.71 1091.28 68.2 943.53 115.1 931.43 114.3 755.2 82.77 708.45 52.7"/><polygon class="cls-2" points="931.43 114.3 1099.05 60.71 1180.15 162.04 940.61 239.45 931.43 114.3"/><polygon class="cls-12" points="734.96 127.47 805.78 86.06 903.96 86.06 874.18 150.4 913.97 201.12 779.67 201.12 700.61 187.76 734.96 127.47"/><polygon class="cls-13" points="708.45 52.7 625.08 148.18 700.61 187.76 734.96 127.47 805.78 86.06 708.45 52.7"/><polygon class="cls-5" points="807.62 227.14 789.68 224.97 778.62 201.78 799.66 177.73 830.45 181.84 846.79 203.26 836.02 228.05 807.62 227.14"/><polygon class="cls-6" points="799.66 177.73 793.12 200.97 803.04 215.17 809.43 221.04 823.54 227.65 819.29 227.51 816.82 227.44 807.62 227.14 789.68 224.97 778.62 201.78 799.66 177.73"/><polygon class="cls-7" points="836.02 228.05 819.23 217.09 827.14 195.59 830.45 181.84 846.79 203.26 836.02 228.05"/><polygon class="cls-5" points="616.04 165.24 604.52 163.84 597.41 148.94 610.93 133.49 630.71 136.13 641.21 149.89 634.29 165.82 616.04 165.24"/><polygon class="cls-6" points="610.93 133.49 606.73 148.42 613.1 157.55 629.76 160.29 634.29 165.82 623.54 165.48 621.96 165.43 616.04 165.24 604.52 163.84 597.41 148.94 610.93 133.49"/><polygon class="cls-7" points="634.29 165.82 632.59 153.64 628.58 144.97 630.71 136.13 641.21 149.89 634.29 165.82"/><polygon class="cls-14" points="874.18 0 855.62 38.06 818.49 55 903.96 86.06 805.78 86.06 708.45 52.7 750.62 39.29 750.85 40.39 768.98 34.52 769.51 33.28 874.18 0"/><polygon class="cls-15" points="1180.15 162.04 1099.05 60.71 1043.93 78.33 1001.67 141.4 913.97 201.12 1043.93 201.12 1180.15 162.04"/><polygon class="cls-16" points="903.96 86.06 874.18 150.4 913.97 201.12 1001.67 141.4 1043.93 78.33 970.49 97.59 903.96 86.06"/><polygon class="cls-5" points="840.6 230.95 833.89 230.14 829.75 221.46 837.62 212.47 849.14 214 855.25 222.02 851.22 231.29 840.6 230.95"/><polygon class="cls-6" points="837.62 212.47 835.18 221.16 838.89 226.47 848.59 228.07 851.22 231.29 844.97 231.09 844.04 231.06 840.6 230.95 833.89 230.14 829.75 221.46 837.62 212.47"/><polygon class="cls-7" points="851.22 231.29 850.23 224.2 847.9 219.15 849.14 214 855.25 222.02 851.22 231.29"/><polygon class="cls-17" points="0 342.78 167.4 290.75 245.14 427.43 0 342.78"/><polygon class="cls-14" points="398.86 480.51 531.2 464.42 666.73 495.47 687.86 580.3 398.86 480.51"/><path class="cls-17" d="M674.65,353.11c1.29.44,51.37,77.09,51.37,77.09l172.87,65.27L913,435.76Z"/><polygon class="cls-5" points="640.56 272.17 657.31 255.32 692.66 255.35 702.07 269.24 681.31 276.8 659.6 277.42 640.56 272.17"/><polygon class="cls-6" points="657.31 255.32 651 275.05 640.56 272.17 657.31 255.32"/><polygon class="cls-7" points="684.94 275.48 680.71 271.46 692.66 255.35 702.07 269.24 684.94 275.48"/><polygon class="cls-18" points="750.85 40.39 764.33 71.85 724.61 96.18 693.55 144.65 683.08 178.57 653.84 191.94 652.9 214.36 673.51 221.47 673.17 198.27 696.88 185.81 710.26 153.59 743.43 106.3 784.77 78.86 782.84 62.77 768.98 34.52 750.85 40.39"/><polygon class="cls-19" points="769.51 33.28 769.51 33.28 784.08 62.41 785.78 79.3 744.07 107.19 711.37 154.18 698.14 186.47 676.85 198.27 674.9 197.6 696.88 185.81 710.26 153.59 743.43 106.3 784.77 78.86 782.84 62.77 768.98 34.52 769.51 33.28"/><polygon class="cls-20" points="764.33 71.85 762.92 71.37 723.11 95.24 691.84 144.41 682.18 178.1 654.41 190.53 653.84 191.94 683.08 178.57 693.55 144.65 724.61 96.18 764.33 71.85"/><polygon class="cls-21" points="640.56 272.17 651 275.05 659.6 277.42 681.31 276.8 702.07 269.24 700.84 267.42 702.55 267.42 706.02 270.42 682.55 280.3 658.49 280.88 648.67 278.59 637.2 272.83 640.84 269.88 642.66 270.05 640.56 272.17"/><polygon class="cls-22" points="674.9 221.95 674.9 198.91 676.85 198.27 674.9 197.6 673.17 198.27 673.51 221.47 674.9 221.95"/><polygon class="cls-21" points="652.08 215.59 673.17 223.63 674.31 222.09 675.68 224.24 673.17 226.53 658.78 220.53 649.08 216.96 649.7 214.53 652.65 214.53 652.08 215.59"/><polygon class="cls-20" points="840.49 279.08 890.14 342.78 1004.69 335.73 840.49 279.08"/><polygon class="cls-20" points="913.74 435.59 1026.03 408.44 1072.54 457.68 1119.06 506.91 913.74 435.59"/><polygon class="cls-20" points="376.6 249.74 467.5 221.47 587.75 286.14 614.41 332.22 376.6 249.74"/><polygon class="cls-20" points="724.61 96.18 705.27 126.36 728.49 105.47 724.61 96.18"/><polygon class="cls-23" points="771.47 39.6 769.43 58.53 783.23 65.95 782.84 62.77 771.47 39.6"/><polygon class="cls-14" points="367.13 246.51 367.13 323.24 578.33 319.7 367.13 246.51"/><polygon class="cls-24" points="925.39 280.88 1099.05 267.42 1199.02 378.58 925.39 280.88"/><polygon class="cls-17" points="1260.64 187.76 1255.43 267.42 1361.32 290.75 1482.95 258.81 1260.64 187.76"/><polygon class="cls-14" points="1572.21 287.34 1556.14 351.14 1622.6 385.72 1744.35 342.35 1572.21 287.34"/><polygon class="cls-17" points="1424.3 480.51 1205.4 558.14 1214.95 787.36 1424.81 712.1 1424.3 480.51"/></g></g></svg>